<svg width="39" height="39" viewBox="0 0 39 39" fill="none" xmlns="http://www.w3.org/2000/svg">
<circle cx="19.5" cy="19.5" r="19" fill="white" stroke="#9AE5FF"/>
<path fill-rule="evenodd" clip-rule="evenodd" d="M16.3408 15.2364C16.3408 14.3318 16.7002 13.4643 17.3398 12.8247C17.9795 12.185 18.847 11.8257 19.7516 11.8257C20.6562 11.8257 21.5237 12.185 22.1634 12.8247C22.803 13.4643 23.1623 14.3318 23.1623 15.2364C23.1623 16.141 22.803 17.0086 22.1634 17.6482C21.5237 18.2878 20.6562 18.6472 19.7516 18.6472C18.847 18.6472 17.9795 18.2878 17.3398 17.6482C16.7002 17.0086 16.3408 16.141 16.3408 15.2364ZM16.3408 20.3526C15.2101 20.3526 14.1257 20.8017 13.3261 21.6013C12.5266 22.4008 12.0774 23.4853 12.0774 24.616C12.0774 25.2944 12.3469 25.9451 12.8266 26.4248C13.3064 26.9046 13.957 27.1741 14.6355 27.1741H24.8677C25.5462 27.1741 26.1968 26.9046 26.6765 26.4248C27.1563 25.9451 27.4258 25.2944 27.4258 24.616C27.4258 23.4853 26.9766 22.4008 26.177 21.6013C25.3775 20.8017 24.2931 20.3526 23.1623 20.3526H16.3408Z" fill="#CED6D8"/>
</svg>
