<svg xmlns="http://www.w3.org/2000/svg" width="155" height="155" viewBox="0 0 155 155" fill="none">
  <!-- 큰 원 -->
  <circle cx="77.5" cy="77.5" r="77" fill="#DDDDDD" stroke="#FFF8F8"/>
  
  <!-- 작은 아이콘 (가운데 배치) -->
  <g transform="translate(47 47)">
    <path fill-rule="evenodd" clip-rule="evenodd" d="M16.9444 13.5556C16.9444 9.9604 18.3726 6.51249 20.9148 3.97033C23.4569 1.42817 26.9048 0 30.5 0C34.0952 0 37.5431 1.42817 40.0852 3.97033C42.6274 6.51249 44.0556 9.9604 44.0556 13.5556C44.0556 17.1507 42.6274 20.5986 40.0852 23.1408C37.5431 25.6829 34.0952 27.1111 30.5 27.1111C26.9048 27.1111 23.4569 25.6829 20.9148 23.1408C18.3726 20.5986 16.9444 17.1507 16.9444 13.5556ZM16.9444 33.8889C12.4505 33.8889 8.14061 35.6741 4.96291 38.8518C1.78521 42.0295 0 46.3394 0 50.8333C0 53.5297 1.07113 56.1156 2.97775 58.0223C4.88437 59.9289 7.4703 61 10.1667 61H50.8333C53.5297 61 56.1156 59.9289 58.0223 58.0223C59.9289 56.1156 61 53.5297 61 50.8333C61 46.3394 59.2148 42.0295 56.0371 38.8518C52.8594 35.6741 48.5495 33.8889 44.0556 33.8889H16.9444Z" fill="white"/>
  </g>
</svg>
