<svg xmlns="http://www.w3.org/2000/svg" width="21" height="24" viewBox="0 0 21 24" fill="none">
  <path d="M13.375 22.5518C13.1441 22.7225 12.899 22.8734 12.6416 23.001C11.9736 23.332 11.2421 23.5027 10.502 23.5H10.498C9.75786 23.5027 9.02639 23.332 8.3584 23.001C8.10081 22.8733 7.85506 22.7227 7.62402 22.5518C9.53726 22.728 11.4618 22.7279 13.375 22.5518ZM10.5 0.5C14.5421 0.5 17.875 4.0065 17.875 8.40039V9.24512C17.8751 10.3502 18.1798 11.4335 18.7578 12.3584H18.7588L20.0508 14.4258C21.0707 16.0591 20.2673 18.2377 18.5625 18.7334H18.5615C13.2907 20.2687 7.70926 20.2687 2.43848 18.7334H2.4375C0.73266 18.2377 -0.0707439 16.0591 0.949219 14.4258L2.24121 12.3584L2.24219 12.3574C2.82067 11.4268 3.12689 10.3464 3.12598 9.24414V8.40039C3.12598 4.0064 6.45797 0.5 10.5 0.5Z" fill="#727272" stroke="#727272"/>
</svg>