<svg xmlns="http://www.w3.org/2000/svg" width="11" height="11" viewBox="0 0 11 11" fill="none">
  <path d="M9.77778 0H1.22222C0.898069 0 0.587192 0.128769 0.357981 0.357981C0.128769 0.587192 0 0.898069 0 1.22222V9.77778C0 10.1019 0.128769 10.4128 0.357981 10.642C0.587192 10.8712 0.898069 11 1.22222 11H9.77778C10.1019 11 10.4128 10.8712 10.642 10.642C10.8712 10.4128 11 10.1019 11 9.77778V1.22222C11 0.898069 10.8712 0.587192 10.642 0.357981C10.4128 0.128769 10.1019 0 9.77778 0ZM4.27778 8.55556L1.22222 5.5L2.08389 4.63833L4.27778 6.82611L8.91611 2.18778L9.77778 3.05556L4.27778 8.55556Z" fill="#5B5B5B"/>
</svg>