<svg xmlns="http://www.w3.org/2000/svg" width="9" height="9" viewBox="0 0 9 9" fill="none">
  <path d="M3.8 5.2L2.725 4.125C2.63333 4.03333 2.51667 3.9875 2.375 3.9875C2.23333 3.9875 2.11667 4.03333 2.025 4.125C1.93333 4.21667 1.8875 4.33333 1.8875 4.475C1.8875 4.61667 1.93333 4.73333 2.025 4.825L3.45 6.25C3.55 6.35 3.66667 6.4 3.8 6.4C3.93333 6.4 4.05 6.35 4.15 6.25L6.975 3.425C7.06667 3.33333 7.1125 3.21667 7.1125 3.075C7.1125 2.93333 7.06667 2.81667 6.975 2.725C6.88333 2.63333 6.76667 2.5875 6.625 2.5875C6.48333 2.5875 6.36667 2.63333 6.275 2.725L3.8 5.2ZM1 9C0.725 9 0.489667 8.90217 0.294 8.7065C0.0983333 8.51083 0.000333333 8.27533 0 8V1C0 0.725 0.098 0.489667 0.294 0.294C0.49 0.0983333 0.725333 0.000333333 1 0H8C8.275 0 8.5105 0.098 8.7065 0.294C8.9025 0.49 9.00033 0.725333 9 1V8C9 8.275 8.90217 8.5105 8.7065 8.7065C8.51083 8.9025 8.27533 9.00033 8 9H1ZM1 8H8V1H1V8Z" fill="#555555"/>
</svg>