<svg xmlns="http://www.w3.org/2000/svg" width="22" height="26" viewBox="0 0 22 26" fill="none">
  <path d="M13.5 21.2105H21M17.25 17.4211V25M1 23.7368V21.2105C1 19.8705 1.52678 18.5853 2.46447 17.6378C3.40215 16.6902 4.67392 16.1579 6 16.1579H11M3.5 6.05263C3.5 7.39267 4.02678 8.67783 4.96447 9.62538C5.90215 10.5729 7.17392 11.1053 8.5 11.1053C9.82608 11.1053 11.0979 10.5729 12.0355 9.62538C12.9732 8.67783 13.5 7.39267 13.5 6.05263C13.5 4.71259 12.9732 3.42743 12.0355 2.47988C11.0979 1.53233 9.82608 1 8.5 1C7.17392 1 5.90215 1.53233 4.96447 2.47988C4.02678 3.42743 3.5 4.71259 3.5 6.05263Z" stroke="#727272" stroke-width="2" stroke-linecap="round" stroke-linejoin="round"/>
</svg>