<svg xmlns="http://www.w3.org/2000/svg" width="32" height="27" viewBox="0 0 32 27" fill="none">
  <path d="M5.50488 1.17285C8.39204 -0.120538 12.1727 0.290808 15.6436 3.82617L16 4.18945L16.3564 3.82617C19.8274 0.290746 23.6079 -0.119303 26.4951 1.1748C29.4113 2.48198 31.4999 5.55977 31.5 9.17969C31.5 12.8331 29.9652 15.6419 27.8252 18.0039C26.2073 19.7895 24.268 21.2965 22.3936 22.7148L20.5557 24.1104L20.5547 24.1113C19.72 24.7577 18.9317 25.3592 18.1592 25.8018C17.3867 26.2443 16.6756 26.5 16 26.5C15.3245 26.5 14.6135 26.2434 13.8408 25.8008C13.0683 25.3582 12.2801 24.7572 11.4453 24.1123L9.60645 22.7148C7.73235 21.2957 5.79278 19.7887 4.1748 18.0029C2.10148 15.7146 0.596907 13.0076 0.504883 9.51855L0.5 9.17871C0.5 5.55783 2.5887 2.47948 5.50488 1.17285Z" fill="#FF8686" stroke="#313334"/>
</svg>