<svg xmlns="http://www.w3.org/2000/svg" width="24" height="24" viewBox="0 0 24 24" fill="none">
  <path d="M12 0.5C18.3405 0.5 23.5 5.65953 23.5 12C23.5 18.3405 18.3405 23.5 12 23.5C5.65953 23.5 0.5 18.3405 0.5 12C0.5 5.65953 5.65953 0.5 12 0.5ZM12 1.3457C6.10509 1.3457 1.3457 6.10509 1.3457 12C1.3457 17.8949 6.10509 22.6543 12 22.6543C17.8949 22.6543 22.6543 17.8949 22.6543 12C22.6543 6.10509 17.8949 1.3457 12 1.3457ZM12.4229 6.96191V11.5771H17.0381V12.4229H12.4229V17.0381H11.5771V12.4229H6.96191V11.5771H11.5771V6.96191H12.4229Z" fill="#0086AB" stroke="black"/>
</svg>