<svg xmlns="http://www.w3.org/2000/svg" width="80" height="33" viewBox="0 0 80 33" fill="none">
  <path d="M1 1.61011H8.73C10.82 1.61011 12.43 1.77011 13.55 2.10011C14.67 2.43011 15.52 2.90011 16.08 3.52011C16.64 4.14011 17.03 4.89011 17.23 5.77011C17.43 6.65011 17.53 8.02011 17.53 9.86011V12.4301C17.53 14.3101 17.34 15.6901 16.95 16.5501C16.56 17.4101 15.85 18.0801 14.81 18.5401C13.77 19.0001 12.41 19.2301 10.73 19.2301H8.67V31.1201H1V1.61011ZM8.68 6.66011V14.1701C8.9 14.1801 9.09 14.1901 9.25 14.1901C9.96 14.1901 10.44 14.0201 10.72 13.6701C10.99 13.3201 11.13 12.6001 11.13 11.5101V9.08011C11.13 8.07011 10.97 7.41011 10.66 7.11011C10.35 6.81011 9.69 6.65011 8.69 6.65011L8.68 6.66011Z" fill="#0086AB" stroke="#97CDE4" stroke-miterlimit="10"/>
  <path d="M37.46 18.9C37.46 21.87 37.39 23.97 37.25 25.2C37.11 26.43 36.67 27.56 35.94 28.58C35.2 29.6 34.21 30.39 32.96 30.93C31.71 31.48 30.25 31.75 28.58 31.75C26.91 31.75 25.58 31.49 24.32 30.98C23.06 30.46 22.05 29.69 21.28 28.65C20.51 27.61 20.06 26.49 19.91 25.28C19.76 24.06 19.69 21.94 19.69 18.9V13.85C19.69 10.88 19.76 8.78 19.9 7.55C20.04 6.32 20.48 5.19 21.21 4.17C21.95 3.15 22.94 2.36 24.19 1.82C25.44 1.27 26.9 1 28.57 1C30.15 1 31.57 1.26 32.83 1.77C34.09 2.29 35.1 3.06 35.87 4.1C36.64 5.13 37.09 6.26 37.24 7.47C37.39 8.69 37.46 10.81 37.46 13.85V18.9ZM29.78 9.2C29.78 7.83 29.7 6.95 29.55 6.57C29.4 6.19 29.09 6 28.61 6C28.21 6 27.9 6.16 27.69 6.47C27.48 6.78 27.37 7.69 27.37 9.21V23C27.37 24.71 27.44 25.77 27.58 26.17C27.72 26.57 28.04 26.77 28.56 26.77C29.08 26.77 29.42 26.54 29.56 26.08C29.71 25.62 29.78 24.52 29.78 22.78V9.21V9.2Z" fill="#0086AB" stroke="#97CDE4" stroke-miterlimit="10"/>
  <path d="M63.31 1.61011V31.1301H56.6V11.2001L53.92 31.1301H49.16L46.34 11.6501V31.1301H39.62V1.61011H49.55C49.84 3.38011 50.15 5.48011 50.46 7.89011L51.55 15.4001L53.31 1.61011H63.3H63.31Z" fill="#0086AB" stroke="#97CDE4" stroke-miterlimit="10"/>
  <path d="M65.47 1.61011H78.27V7.52011H73.15V13.1201H77.95V18.7401H73.15V25.2301H78.79V31.1401H65.48V1.61011H65.47Z" fill="#0086AB" stroke="#97CDE4" stroke-miterlimit="10"/>
  <path d="M41.67 10V13.98H36.11V10H41.67ZM41.67 18.75V22.74H36.11V18.75H41.67Z" fill="#0086AB" stroke="#97CDE4" stroke-miterlimit="10"/>
</svg>