<svg xmlns="http://www.w3.org/2000/svg" width="79" height="32" viewBox="0 0 79 32" fill="none">
  <path d="M0.5 1.11011H8.23C10.32 1.11011 11.93 1.27011 13.05 1.60011C14.17 1.93011 15.02 2.40011 15.58 3.02011C16.14 3.64011 16.53 4.39011 16.73 5.27011C16.93 6.15011 17.03 7.52011 17.03 9.36011V11.9301C17.03 13.8101 16.84 15.1901 16.45 16.0501C16.06 16.9101 15.35 17.5801 14.31 18.0401C13.27 18.5001 11.91 18.7301 10.23 18.7301H8.17V30.6201H0.5V1.11011ZM8.18 6.16011V13.6701C8.4 13.6801 8.59 13.6901 8.75 13.6901C9.46 13.6901 9.94 13.5201 10.22 13.1701C10.49 12.8201 10.63 12.1001 10.63 11.0101V8.58011C10.63 7.57011 10.47 6.91011 10.16 6.61011C9.85 6.31011 9.19 6.15011 8.19 6.15011L8.18 6.16011Z" fill="#0086AB" stroke="#97CDE4" stroke-miterlimit="10"/>
  <path d="M36.96 18.4C36.96 21.37 36.89 23.47 36.75 24.7C36.61 25.93 36.17 27.06 35.44 28.08C34.7 29.1 33.71 29.89 32.46 30.43C31.21 30.98 29.75 31.25 28.08 31.25C26.41 31.25 25.08 30.99 23.82 30.48C22.56 29.96 21.55 29.19 20.78 28.15C20.01 27.11 19.56 25.99 19.41 24.78C19.26 23.56 19.19 21.44 19.19 18.4V13.35C19.19 10.38 19.26 8.28 19.4 7.05C19.54 5.82 19.98 4.69 20.71 3.67C21.45 2.65 22.44 1.86 23.69 1.32C24.94 0.77 26.4 0.5 28.07 0.5C29.65 0.5 31.07 0.76 32.33 1.27C33.59 1.79 34.6 2.56 35.37 3.6C36.14 4.63 36.59 5.76 36.74 6.97C36.89 8.19 36.96 10.31 36.96 13.35V18.4ZM29.28 8.7C29.28 7.33 29.2 6.45 29.05 6.07C28.9 5.69 28.59 5.5 28.11 5.5C27.71 5.5 27.4 5.66 27.19 5.97C26.98 6.28 26.87 7.19 26.87 8.71V22.5C26.87 24.21 26.94 25.27 27.08 25.67C27.22 26.07 27.54 26.27 28.06 26.27C28.58 26.27 28.92 26.04 29.06 25.58C29.21 25.12 29.28 24.02 29.28 22.28V8.71V8.7Z" fill="#0086AB" stroke="#97CDE4" stroke-miterlimit="10"/>
  <path d="M62.81 1.11011V30.6301H56.1V10.7001L53.42 30.6301H48.66L45.84 11.1501V30.6301H39.12V1.11011H49.05C49.34 2.88011 49.65 4.98011 49.96 7.39011L51.05 14.9001L52.81 1.11011H62.8H62.81Z" fill="#0086AB" stroke="#97CDE4" stroke-miterlimit="10"/>
  <path d="M64.97 1.11011H77.77V7.02011H72.65V12.6201H77.45V18.2401H72.65V24.7301H78.29V30.6401H64.98V1.11011H64.97Z" fill="#0086AB" stroke="#97CDE4" stroke-miterlimit="10"/>
  <path d="M41.17 9.5V13.48H35.61V9.5H41.17ZM41.17 18.25V22.24H35.61V18.25H41.17Z" fill="#0086AB" stroke="#97CDE4" stroke-miterlimit="10"/>
</svg>