<svg xmlns="http://www.w3.org/2000/svg" width="186" height="151" viewBox="0 0 186 151" fill="none">
  <path d="M70.4822 19.5391C70.4822 19.5391 72.0413 2.46993 62.7632 0.936287C53.4808 -0.597353 48.918 18.2596 48.918 18.2596" fill="#97CDE4"/>
  <path d="M70.4822 19.5391C70.4822 19.5391 72.0413 2.46993 62.7632 0.936287C53.4808 -0.597353 48.918 18.2596 48.918 18.2596" stroke="black" stroke-width="1.69463" stroke-linecap="round" stroke-linejoin="round"/>
  <path d="M133.412 111.38C133.412 111.38 138.441 118.209 144.156 119.022C149.871 119.836 145.986 125.907 139.721 126.33C133.455 126.758 124.418 117.518 124.418 117.518" fill="#97CDE4"/>
  <path d="M133.412 111.38C133.412 111.38 138.441 118.209 144.156 119.022C149.871 119.836 145.986 125.907 139.721 126.33C133.455 126.758 124.418 117.518 124.418 117.518" stroke="black" stroke-width="1.69463" stroke-linecap="round" stroke-linejoin="round"/>
  <path d="M123.244 127.055C123.244 127.055 128.273 133.884 133.988 134.698C139.704 135.511 135.819 141.582 129.553 142.006C123.287 142.434 114.25 133.194 114.25 133.194" fill="#97CDE4"/>
  <path d="M123.244 127.055C123.244 127.055 128.273 133.884 133.988 134.698C139.704 135.511 135.819 141.582 129.553 142.006C123.287 142.434 114.25 133.194 114.25 133.194" stroke="black" stroke-width="1.69463" stroke-linecap="round" stroke-linejoin="round"/>
  <path d="M180.828 64.5612C181.849 65.311 185.226 59.6595 183.556 56.7023C178.625 47.9707 161.094 51.2244 150.316 61.4007C139.297 71.8099 140.297 92.692 142.627 107.016C154.049 115.337 164.216 103.898 156.739 97.7208C172.257 110.536 193.449 73.8181 180.828 64.5654V64.5612Z" fill="#97CDE4" stroke="black" stroke-width="1.69463" stroke-linecap="round" stroke-linejoin="round"/>
  <path d="M99.2485 20.6279C106.341 -1.19895 55.3873 -1.19895 62.4793 20.6279C55.3873 -1.19895 14.1654 28.7494 32.7343 42.2387C14.1654 28.7494 -1.57771 77.2073 21.3718 77.2073C-1.57771 77.2073 14.1654 125.665 32.7343 112.176C14.1654 125.665 55.3873 155.614 62.4793 133.787C55.3873 155.614 106.341 155.614 99.2485 133.787C106.341 155.614 147.562 125.665 128.994 112.176C147.562 125.665 163.306 77.2073 140.356 77.2073C163.306 77.2073 147.562 28.7494 128.994 42.2387C147.562 28.7494 106.341 -1.19895 99.2485 20.6279Z" fill="white" stroke="black" stroke-width="1.69463" stroke-linecap="round" stroke-linejoin="round"/>
  <path d="M84.5688 83.1343C83.0648 77.5463 80.794 75.2077 77.9259 74.3265C71.7871 75.8389 65.017 75.8262 60.3822 75.5381C59.5349 76.3304 59.1494 77.7073 59.1494 80.1687C59.1494 86.4854 72.2743 92.4548 79.0613 92.4548C85.8482 92.4548 86.2126 89.235 84.5688 83.1343Z" fill="#FFA1A1" stroke="black" stroke-width="1.69463" stroke-linecap="round" stroke-linejoin="round"/>
  <path d="M73.9773 87.3709C73.9773 87.3709 66.3515 81.016 68.0461 75.5085" stroke="black" stroke-width="1.69463" stroke-linecap="round" stroke-linejoin="round"/>
  <path d="M64.7925 47.1234C64.7925 57.8886 58.4079 66.6117 50.5322 66.6117C42.6564 66.6117 36.2719 57.8886 36.2719 47.1234C36.2719 36.3583 42.6564 27.6352 50.5322 27.6352C58.4079 27.6352 64.7925 36.3583 64.7925 47.1234Z" fill="white" stroke="black" stroke-width="1.69463" stroke-linecap="round" stroke-linejoin="round"/>
  <path d="M58.0605 46.0939C58.0605 54.3637 53.1546 61.066 47.1048 61.066C41.0549 61.066 36.149 54.3637 36.149 46.0939C36.149 37.8241 41.0549 31.1219 47.1048 31.1219C53.1546 31.1219 58.0605 37.8241 58.0605 46.0939Z" fill="black" stroke="black" stroke-width="1.69463" stroke-linecap="round" stroke-linejoin="round"/>
  <path d="M62.115 61.9514C62.115 61.9514 57.0311 62.7987 52.7945 62.3751C47.1684 61.8116 36.6955 55.5966 39.2375 64.0697C40.7754 69.2044 48.9816 73.3902 48.9816 73.3902" fill="white"/>
  <path d="M62.115 61.9514C62.115 61.9514 57.0311 62.7987 52.7945 62.3751C47.1684 61.8116 36.6955 55.5966 39.2375 64.0697C40.7754 69.2044 48.9816 73.3902 48.9816 73.3902" stroke="black" stroke-width="1.69463" stroke-linecap="round" stroke-linejoin="round"/>
  <path d="M42.8396 63.2814C43.498 62.0415 43.2779 60.6361 42.348 60.1423C41.4181 59.6484 40.1305 60.2532 39.472 61.4931C38.8136 62.733 39.0337 64.1385 39.9636 64.6323C40.8935 65.1261 42.1812 64.5213 42.8396 63.2814Z" fill="black" stroke="black" stroke-width="1.69463" stroke-linecap="round" stroke-linejoin="round"/>
  <path d="M54.7306 74.9789C54.7306 74.9789 71.0711 77.5547 82.2683 72.9326" stroke="black" stroke-width="1.69463" stroke-linecap="round" stroke-linejoin="round"/>
  <path d="M23.2105 79.296C23.2105 79.296 12.3564 80.1941 6.74715 75.3475C1.13792 70.5051 -1.45909 79.3849 3.4172 85.8118C8.2935 92.2387 24.8627 93.1835 24.8627 93.1835" fill="white"/>
  <path d="M23.2105 79.296C23.2105 79.296 12.3564 80.1941 6.74715 75.3475C1.13792 70.5051 -1.45909 79.3849 3.4172 85.8118C8.2935 92.2387 24.8627 93.1835 24.8627 93.1835" stroke="black" stroke-width="1.69463" stroke-linecap="round" stroke-linejoin="round"/>
  <path d="M109.141 22.9749C109.141 22.9749 120.156 9.84156 127.782 15.3491C135.408 20.8567 125.24 37.3793 125.24 37.3793" fill="#97CDE4"/>
  <path d="M109.141 22.9749C109.141 22.9749 120.156 9.84156 127.782 15.3491C135.408 20.8567 125.24 37.3793 125.24 37.3793" stroke="black" stroke-width="1.69463" stroke-linecap="round" stroke-linejoin="round"/>
  <path d="M6.14217 85.6827C7.47566 85.2437 7.90431 82.906 7.09957 80.4613C6.29484 78.0166 4.56147 76.3905 3.22798 76.8295C1.89448 77.2684 1.46584 79.6061 2.27058 82.0508C3.07531 84.4956 4.80868 86.1216 6.14217 85.6827Z" fill="#97CDE4"/>
  <path d="M48.6299 79.296C48.6299 79.296 37.7758 80.1941 32.1666 75.3475C26.5574 70.5008 23.9603 79.3849 28.8366 85.8118C33.7129 92.2345 50.2822 93.1835 50.2822 93.1835" fill="white"/>
  <path d="M48.6299 79.296C48.6299 79.296 37.7758 80.1941 32.1666 75.3475C26.5574 70.5008 23.9603 79.3849 28.8366 85.8118C33.7129 92.2345 50.2822 93.1835 50.2822 93.1835" stroke="black" stroke-width="1.69463" stroke-linecap="round" stroke-linejoin="round"/>
  <path d="M31.5623 85.6784C32.8958 85.2395 33.3245 82.9018 32.5197 80.4571C31.715 78.0123 29.9816 76.3863 28.6481 76.8253C27.3147 77.2642 26.886 79.6019 27.6907 82.0466C28.4955 84.4914 30.2288 86.1174 31.5623 85.6784Z" fill="#97CDE4"/>
  <path d="M88.4199 34.4942C85.8144 35.9939 82.5649 38.252 79.3536 41.6116C73.702 47.5217 70.9736 53.9104 69.6561 57.7954C72.1133 56.5201 76.5913 54.6264 82.4124 54.5586C86.5049 54.512 89.8561 55.3805 92.1099 56.177" stroke="black" stroke-width="1.69463" stroke-linecap="round" stroke-linejoin="round"/>
</svg>