<svg xmlns="http://www.w3.org/2000/svg" width="244" height="249" viewBox="0 0 244 249" fill="none">
  <g clip-path="url(#clip0_615_3)">
    <path d="M227.104 202.994C226.686 204.81 236.302 206.076 239.328 202.089C248.251 190.321 233.613 168.519 213.558 159.895C193.048 151.079 165.393 164.625 147.397 176.144C142.823 196.448 164.226 203.512 168.207 189.79C159.945 218.256 221.969 225.463 227.111 202.994H227.104Z" fill="#97CDE4" stroke="black" stroke-width="2.49593" stroke-linecap="round" stroke-linejoin="round"/>
    <path d="M153.556 100.461C184.533 100.461 209.645 82.861 209.645 61.1502C209.645 39.4394 184.533 21.8394 153.556 21.8394C122.578 21.8394 97.4658 39.4394 97.4658 61.1502C97.4658 82.861 122.578 100.461 153.556 100.461Z" fill="#CCCCCC"/>
    <path d="M132.758 50.9418C143.204 18.7943 68.1574 18.7943 78.6029 50.9418C68.1574 18.7943 7.44397 62.9036 34.7931 82.7712C7.44397 62.9036 -15.7432 134.275 18.0579 134.275C-15.7432 134.275 7.44397 205.646 34.7931 185.778C7.44397 205.646 68.1574 249.755 78.6029 217.607C68.1574 249.755 143.204 249.755 132.758 217.607C143.204 249.755 203.917 205.646 176.568 185.778C203.917 205.646 227.104 134.275 193.303 134.275C227.104 134.275 203.917 62.9036 176.568 82.7712C203.917 62.9036 143.204 18.7943 132.758 50.9418Z" fill="white" stroke="black" stroke-width="2.49593" stroke-linecap="round" stroke-linejoin="round"/>
    <path d="M126.862 81.6917C126.019 81.7229 125.171 81.7416 124.297 81.7416C112.697 81.7416 103.207 78.2535 103.207 94.1027C103.207 109.952 112.61 122.806 124.21 122.806C135.81 122.806 145.213 109.958 145.213 94.1027C145.213 93.8531 145.207 93.6285 145.201 93.3851C138.199 90.209 131.685 85.5853 126.862 81.6854V81.6917Z" fill="white" stroke="black" stroke-width="2.49593" stroke-linecap="round" stroke-linejoin="round"/>
    <path d="M81.8662 81.7416C80.3687 81.7416 78.9148 81.6854 77.5046 81.6168C73.0743 85.2047 67.1902 89.429 60.8068 92.5677C60.7881 93.0606 60.7756 93.566 60.7756 94.1027C60.7756 109.958 70.179 122.806 81.7789 122.806C93.3787 122.806 102.782 109.958 102.782 94.1027C102.782 78.2473 93.466 81.7416 81.8662 81.7416Z" fill="white" stroke="black" stroke-width="2.49593" stroke-linecap="round" stroke-linejoin="round"/>
    <path d="M118.663 74.3911C118.663 74.3911 135.704 91.8002 153 96.1806" stroke="black" stroke-width="2.49593" stroke-linecap="round" stroke-linejoin="round"/>
    <path d="M85.6102 74.3911C85.6102 74.3911 68.5692 91.8002 51.2725 96.1806" stroke="black" stroke-width="2.49593" stroke-linecap="round" stroke-linejoin="round"/>
    <path d="M97.8152 111.331C97.8152 111.331 94.4706 118.145 90.3336 122.856C84.8363 129.108 68.4131 136.328 80.743 140.546C88.2121 143.104 100.261 136.864 100.261 136.864" fill="white"/>
    <path d="M97.8152 111.331C97.8152 111.331 94.4706 118.145 90.3336 122.856C84.8363 129.108 68.4131 136.328 80.743 140.546C88.2121 143.104 100.261 136.864 100.261 136.864" stroke="black" stroke-width="2.49593" stroke-linecap="round" stroke-linejoin="round"/>
    <path d="M82.0079 140.163C83.3965 139.473 83.7758 137.412 82.8551 135.561C81.9344 133.709 80.0624 132.768 78.6739 133.459C77.2853 134.149 76.906 136.21 77.8267 138.061C78.7473 139.913 80.6193 140.854 82.0079 140.163Z" fill="black" stroke="black" stroke-width="2.49593" stroke-linecap="round" stroke-linejoin="round"/>
    <path d="M161.68 216.016C161.68 216.016 165.424 231.616 174.784 237.232C184.143 242.848 172.912 250.572 161.68 246.71C150.448 242.848 141.494 220.103 141.494 220.103" fill="white"/>
    <path d="M161.68 216.016C161.68 216.016 165.424 231.616 174.784 237.232C184.143 242.848 172.912 250.572 161.68 246.71C150.448 242.848 141.494 220.103 141.494 220.103" stroke="black" stroke-width="2.49593" stroke-linecap="round" stroke-linejoin="round"/>
    <path d="M48.2648 214.768C48.2648 214.768 44.521 230.368 35.1612 235.984C25.8015 241.6 37.0332 249.324 48.2648 245.462C59.4965 241.6 68.4507 218.855 68.4507 218.855" fill="white"/>
    <path d="M48.2648 214.768C48.2648 214.768 44.521 230.368 35.1612 235.984C25.8015 241.6 37.0332 249.324 48.2648 245.462C59.4965 241.6 68.4507 218.855 68.4507 218.855" stroke="black" stroke-width="2.49593" stroke-linecap="round" stroke-linejoin="round"/>
    <path d="M179.832 71.7579C179.832 71.7579 202.332 86.3966 191.456 94.9825C180.58 103.562 153.624 79.8697 153.624 79.8697" fill="#97CDE4"/>
    <path d="M179.832 71.7579C179.832 71.7579 202.332 86.3966 191.456 94.9825C180.58 103.562 153.624 79.8697 153.624 79.8697" stroke="black" stroke-width="2.49593" stroke-linecap="round" stroke-linejoin="round"/>
    <path d="M34.0631 71.7579C34.0631 71.7579 11.5623 86.3966 22.4383 94.9825C33.3143 103.562 60.2704 79.8697 60.2704 79.8697" fill="#97CDE4"/>
    <path d="M34.0631 71.7579C34.0631 71.7579 11.5623 86.3966 22.4383 94.9825C33.3143 103.562 60.2704 79.8697 60.2704 79.8697" stroke="black" stroke-width="2.49593" stroke-linecap="round" stroke-linejoin="round"/>
    <path d="M42.4993 245.343C46.2901 245.343 49.3631 243.667 49.3631 241.6C49.3631 239.532 46.2901 237.856 42.4993 237.856C38.7085 237.856 35.6355 239.532 35.6355 241.6C35.6355 243.667 38.7085 245.343 42.4993 245.343Z" fill="#97CDE4"/>
    <path d="M166.672 246.591C170.462 246.591 173.535 244.915 173.535 242.848C173.535 240.78 170.462 239.104 166.672 239.104C162.881 239.104 159.808 240.78 159.808 242.848C159.808 244.915 162.881 246.591 166.672 246.591Z" fill="#97CDE4"/>
    <path d="M124.154 122.75C133.065 122.75 140.29 116.363 140.29 108.486C140.29 100.608 133.065 94.2213 124.154 94.2213C115.242 94.2213 108.017 100.608 108.017 108.486C108.017 116.363 115.242 122.75 124.154 122.75Z" fill="black" stroke="black" stroke-width="2.49593" stroke-linecap="round" stroke-linejoin="round"/>
    <path d="M81.7228 122.75C90.6346 122.75 97.859 116.363 97.859 108.486C97.859 100.608 90.6346 94.2213 81.7228 94.2213C72.8111 94.2213 65.5867 100.608 65.5867 108.486C65.5867 116.363 72.8111 122.75 81.7228 122.75Z" fill="black" stroke="black" stroke-width="2.49593" stroke-linecap="round" stroke-linejoin="round"/>
    <path d="M173.592 1.87195V43.0548" stroke="black" stroke-width="3.11991" stroke-miterlimit="10" stroke-linecap="round"/>
    <path d="M166.834 6.55176V47.7346" stroke="black" stroke-width="3.11991" stroke-miterlimit="10" stroke-linecap="round"/>
    <path d="M160.07 1.55994V42.7427" stroke="black" stroke-width="3.11991" stroke-miterlimit="10" stroke-linecap="round"/>
    <path d="M153.312 7.7998V48.9826" stroke="black" stroke-width="3.11991" stroke-miterlimit="10" stroke-linecap="round"/>
  </g>
  <defs>
    <clipPath id="clip0_615_3">
      <rect width="243.247" height="249" fill="white"/>
    </clipPath>
  </defs>
</svg>