<svg xmlns="http://www.w3.org/2000/svg" width="10" height="11" viewBox="0 0 10 11" fill="none">
  <path d="M5.27425 10.6788L5.26822 10.6798L5.23256 10.6974L5.22251 10.6994L5.21548 10.6974L5.17981 10.6793C5.17445 10.678 5.17043 10.679 5.16776 10.6823L5.16575 10.6873L5.15721 10.9023L5.15972 10.9124L5.16474 10.9189L5.21698 10.9561L5.22452 10.9581L5.23055 10.9561L5.28279 10.9189L5.28882 10.9109L5.29083 10.9023L5.28229 10.6878C5.28095 10.6825 5.27827 10.6795 5.27425 10.6788ZM5.40687 10.622L5.39984 10.623L5.30741 10.6698L5.30238 10.6748L5.30088 10.6803L5.30992 10.8963L5.31243 10.9023L5.31645 10.9064L5.41742 10.9526C5.42378 10.9542 5.42864 10.9529 5.43199 10.9486L5.434 10.9415L5.41692 10.6331C5.41524 10.6267 5.41189 10.623 5.40687 10.622ZM5.04769 10.623C5.04548 10.6217 5.04284 10.6213 5.04031 10.6218C5.03778 10.6224 5.03557 10.6239 5.03413 10.6261L5.03112 10.6331L5.01404 10.9415C5.01437 10.9476 5.01722 10.9516 5.02258 10.9536L5.03011 10.9526L5.13108 10.9059L5.13611 10.9018L5.13761 10.8963L5.14666 10.6803L5.14515 10.6743L5.14013 10.6693L5.04769 10.623Z" fill="#2D29FF"/>
  <path d="M3.52262 1.73208C3.82302 0.852979 5.03769 0.826355 5.39385 1.65221L5.42399 1.73258L5.82939 2.91811C5.92229 3.19 6.07242 3.4388 6.26965 3.64773C6.46689 3.85666 6.70663 4.02086 6.97272 4.12926L7.08173 4.16995L8.26726 4.57484C9.14636 4.87524 9.17298 6.08991 8.34763 6.44607L8.26726 6.47621L7.08173 6.8816C6.80975 6.97445 6.56085 7.12455 6.35183 7.32179C6.14281 7.51902 5.97853 7.7588 5.87007 8.02494L5.82939 8.13344L5.4245 9.31948C5.12409 10.1986 3.90943 10.2252 3.55377 9.39985L3.52262 9.31948L3.11773 8.13395C3.02489 7.86197 2.87479 7.61307 2.67755 7.40405C2.48032 7.19503 2.24054 7.03075 1.9744 6.92229L1.86589 6.8816L0.680363 6.47672C-0.199241 6.17631 -0.225865 4.96165 0.599988 4.60599L0.680363 4.57484L1.86589 4.16995C2.13778 4.07705 2.38658 3.92692 2.59551 3.72968C2.80444 3.53245 2.96864 3.29271 3.07704 3.02662L3.11773 2.91811L3.52262 1.73208ZM8.49231 9.07672e-08C8.58629 -1.18539e-07 8.67838 0.0263621 8.75812 0.0760908C8.83787 0.125819 8.90206 0.19692 8.94341 0.281312L8.96753 0.340087L9.14335 0.855491L9.65925 1.03131C9.75343 1.06331 9.83599 1.12254 9.89647 1.20151C9.95695 1.28048 9.99263 1.37563 9.99898 1.47489C10.0053 1.57416 9.98206 1.67307 9.93213 1.7591C9.88221 1.84513 9.80787 1.9144 9.71853 1.95814L9.65925 1.98225L9.14385 2.15807L8.96803 2.67397C8.93598 2.76813 8.87669 2.85065 8.7977 2.91108C8.7187 2.97151 8.62354 3.00712 8.52428 3.01342C8.42502 3.01971 8.32612 2.9964 8.24012 2.94644C8.15412 2.89647 8.08489 2.8221 8.0412 2.73275L8.01709 2.67397L7.84127 2.15857L7.32536 1.98275C7.23118 1.95075 7.14862 1.89152 7.08814 1.81255C7.02766 1.73358 6.99199 1.63843 6.98564 1.53917C6.97929 1.43991 7.00256 1.34099 7.05248 1.25496C7.10241 1.16893 7.17675 1.09966 7.26609 1.05593L7.32536 1.03181L7.84077 0.855994L8.01659 0.340087C8.05046 0.240836 8.11455 0.154676 8.19986 0.0936865C8.28518 0.032697 8.38744 -6.29343e-05 8.49231 9.07672e-08Z" fill="#2D29FF"/>
</svg>