<svg xmlns="http://www.w3.org/2000/svg" width="30" height="29" viewBox="0 0 30 29" fill="none">
  <path fill-rule="evenodd" clip-rule="evenodd" d="M22.2754 2.05244C23.9862 0.702153 26.6617 -0.840286 28.7552 0.541471C31.3766 2.27207 29.2076 6.71199 28.1433 8.55778C29.5729 10.723 29.7324 14.5 26.8659 14.5C31.4433 14.5 28.3036 24.132 24.6 21.451C28.3032 24.1322 20.0825 30.0842 18.6676 25.7465C20.0813 30.0845 9.91926 30.0845 11.3331 25.7465C9.91821 30.0843 1.69719 24.1322 5.40071 21.451C1.69712 24.1321 -1.44308 14.5005 3.1339 14.5C0.267904 14.4998 0.427222 10.723 1.85652 8.55778C0.792165 6.71185 -1.37639 2.27206 1.24461 0.541471C3.33799 -0.840539 6.01353 0.702165 7.72444 2.05244C9.22318 1.43788 10.7863 1.57725 11.3331 3.25356C9.91937 -1.08434 20.0812 -1.08432 18.6676 3.25356C19.2143 1.57751 20.7768 1.43817 22.2754 2.05244Z" fill="#0086AB"/>
</svg>