<svg xmlns="http://www.w3.org/2000/svg" width="31" height="29" viewBox="0 0 31 29" fill="none">
  <path d="M3.20674 22.7726H6.41349V26.9817C6.41349 27.8091 7.36098 28.2786 8.01927 27.7773L14.5923 22.7726H22.4472C24.2157 22.7726 25.6539 21.4039 25.6539 19.7208V7.51329C25.6539 5.83019 24.2157 4.46143 22.4472 4.46143H3.20674C1.43822 4.46143 0 5.83019 0 7.51329V19.7208C0 21.4039 1.43822 22.7726 3.20674 22.7726Z" fill="#CED6D8"/>
  <path d="M27.0481 0H8.64422C6.9526 0 5.5769 1.41738 5.5769 3.16027H23.9808C25.6724 3.16027 27.0481 4.57765 27.0481 6.32054V18.9616C28.7398 18.9616 30.1155 17.5442 30.1155 15.8013V3.16027C30.1155 1.41738 28.7398 0 27.0481 0Z" fill="#CED6D8"/>
</svg>