<svg xmlns="http://www.w3.org/2000/svg" width="21" height="23" viewBox="0 0 21 23" fill="none">
  <path d="M19.833 5.59961C19.8799 5.59966 19.923 5.61757 19.9531 5.64551C19.9828 5.6731 19.998 5.70841 20 5.74219C20.002 5.77583 19.991 5.81117 19.9658 5.84082C19.9413 5.86966 19.9041 5.88989 19.8604 5.89648L19.793 5.90039H18.8213L18.7432 6.81543L17.6709 19.4658L17.668 19.5078V19.5498C17.668 20.1702 17.4271 20.77 16.9912 21.2256C16.5556 21.6809 15.9574 21.9574 15.3174 21.9951L15.1396 22H5.83301C4.55755 22 3.54334 21.0782 3.36426 19.9961L3.33984 19.7783L3.33496 19.6152V19.5879L3.33203 19.5615L2.25488 6.81543L2.17773 5.90039H1.16699C1.12012 5.90034 1.07695 5.88243 1.04688 5.85449C1.01722 5.8269 1.00201 5.79159 1 5.75781C0.998032 5.72417 1.00902 5.68883 1.03418 5.65918C1.05849 5.63055 1.09535 5.61028 1.13867 5.60352L1.20703 5.59961H19.833ZM7.16797 2.23926L7.16309 2.31934C7.158 2.35149 7.14256 2.38417 7.1123 2.40918C7.08008 2.43576 7.03598 2.45087 6.98926 2.44824C6.94249 2.44554 6.90095 2.42562 6.87305 2.39648C6.84587 2.36806 6.83328 2.33323 6.83301 2.2998L6.83887 2.17871C6.86565 1.89866 6.98506 1.63197 7.18359 1.4209C7.19524 1.40852 7.20763 1.39666 7.21973 1.38477L7.16797 2.23926ZM13.7822 1.38574C14.0306 1.63063 14.1669 1.95989 14.167 2.2998C14.1667 2.33323 14.1541 2.36806 14.127 2.39648C14.099 2.42562 14.0575 2.44554 14.0107 2.44824C13.964 2.45087 13.9199 2.43576 13.8877 2.40918C13.8574 2.38413 13.841 2.35154 13.8359 2.31934L13.832 2.23926L13.7793 1.38281C13.7802 1.38373 13.7813 1.38483 13.7822 1.38574ZM12.834 1C13.148 1.00008 13.4485 1.10793 13.6855 1.2998H7.31543C7.52428 1.13085 7.7826 1.02474 8.05859 1.00293L8.16992 1H12.834Z" stroke="#0086AB" stroke-width="2"/>
</svg>